<!DOCTYPE svg PUBLIC "-//W3C//DTD SVG 1.1//EN" "http://www.w3.org/Graphics/SVG/1.1/DTD/svg11.dtd">
<!-- Uploaded to: SVG Repo, www.svgrepo.com, Transformed by: SVG Repo Mixer Tools -->
<svg height="800px" width="800px" version="1.1" id="Layer_1" xmlns="http://www.w3.org/2000/svg" xmlns:xlink="http://www.w3.org/1999/xlink" viewBox="0 0 512 512" xml:space="preserve" fill="#000000">
<g id="SVGRepo_bgCarrier" stroke-width="0"/>
<g id="SVGRepo_tracerCarrier" stroke-linecap="round" stroke-linejoin="round"/>
<g id="SVGRepo_iconCarrier"> <path style="fill:#70001E;" d="M505.111,70.895l-64.725-64.15c-0.368-0.365-0.759-0.69-1.143-1.026 c-0.172-0.149-0.335-0.313-0.509-0.456c-0.664-0.543-1.354-1.052-2.07-1.517c-0.003-0.003-0.008-0.005-0.012-0.006 c-0.701-0.455-1.43-0.864-2.175-1.241c-0.169-0.085-0.344-0.157-0.515-0.237c-0.582-0.276-1.174-0.532-1.778-0.76 c-0.234-0.088-0.473-0.166-0.709-0.247c-0.552-0.188-1.116-0.355-1.682-0.501c-0.267-0.067-0.531-0.135-0.799-0.194 c-0.574-0.127-1.153-0.223-1.738-0.306c-0.251-0.036-0.5-0.081-0.752-0.109C425.675,0.056,424.842,0,424.003,0H88h-0.003 c-0.841,0-1.674,0.056-2.499,0.146c-0.248,0.028-0.496,0.071-0.743,0.107c-0.588,0.082-1.173,0.182-1.75,0.309 c-0.264,0.057-0.526,0.124-0.788,0.191c-0.573,0.147-1.136,0.315-1.694,0.504c-0.233,0.079-0.467,0.157-0.698,0.242 c-0.61,0.228-1.206,0.487-1.792,0.766c-0.166,0.079-0.337,0.147-0.503,0.231c-1.494,0.752-2.925,1.671-4.26,2.765 c-0.172,0.143-0.337,0.307-0.507,0.455c-0.385,0.335-0.776,0.661-1.143,1.026L6.89,70.887C2.481,75.258,0,81.209,0,87.417 s2.481,12.159,6.89,16.53l202.971,201.157c7.804-3.679,16.109-6.461,24.79-8.197c6.906-1.382,14.043-2.119,21.349-2.119 c7.305,0,14.44,0.737,21.343,2.118c8.682,1.736,16.988,4.518,24.792,8.197l34.92-34.607c0.016-0.016,0.033-0.028,0.048-0.043 L505.11,103.955c4.409-4.369,6.89-10.321,6.89-16.528S509.519,75.267,505.111,70.895z"/> <path style="fill:#830018;" d="M505.111,70.895l-64.725-64.15c-0.368-0.365-0.759-0.69-1.143-1.026 c-0.172-0.149-0.335-0.313-0.509-0.456c-0.664-0.543-1.354-1.052-2.07-1.516c-0.003-0.003-0.008-0.005-0.012-0.006 c-0.701-0.455-1.43-0.864-2.175-1.241c-0.169-0.085-0.344-0.157-0.515-0.237c-0.582-0.276-1.174-0.532-1.78-0.76 c-0.234-0.088-0.473-0.166-0.709-0.247c-0.552-0.188-1.116-0.355-1.682-0.501c-0.267-0.067-0.531-0.135-0.799-0.194 c-0.574-0.126-1.153-0.223-1.738-0.306c-0.251-0.036-0.5-0.081-0.752-0.109C425.675,0.056,424.842,0,424.003,0 c-5.922,0-11.846,2.247-16.382,6.743l-16.679,16.53l-23.484,23.273l-111.461,110.46l9.576,9.489l6.954,6.893l16.527,16.379 l0.003,0.005l23.479,23.268l8.187,8.114l16.379,16.232c0.051,0.05,0.095,0.107,0.144,0.158c4.316,4.357,6.748,10.235,6.748,16.373 c0,6.209-2.481,12.159-6.89,16.53l-0.048,0.048c0.016-0.016,0.033-0.028,0.048-0.043L505.11,103.955 c4.409-4.369,6.89-10.321,6.89-16.528C512,81.217,509.519,75.267,505.111,70.895z"/> <path style="fill:#D8143A;" d="M343.994,253.918c0-6.138-2.43-12.016-6.748-16.373c-0.05-0.051-0.093-0.107-0.144-0.158 l-16.379-16.232l-8.187-8.114l-23.479-23.268l-0.003-0.005l-16.527-16.379l-6.954-6.893l-9.576-9.489L144.541,46.545l-23.484-23.273 l-16.679-16.53C99.845,2.248,93.923,0.002,88,0h-0.003c-0.841,0-1.674,0.056-2.499,0.146c-0.248,0.026-0.496,0.071-0.743,0.107 c-0.588,0.082-1.173,0.182-1.75,0.309c-0.264,0.057-0.526,0.124-0.788,0.191c-0.573,0.147-1.136,0.315-1.694,0.504 c-0.233,0.079-0.467,0.157-0.698,0.242c-0.61,0.228-1.206,0.489-1.792,0.766c-0.166,0.079-0.337,0.147-0.503,0.231 c-1.494,0.752-2.925,1.671-4.26,2.765c-0.172,0.143-0.337,0.307-0.507,0.456c-0.385,0.335-0.776,0.661-1.143,1.026L6.89,70.887 C2.481,75.258,0,81.209,0,87.417s2.481,12.159,6.89,16.53l202.971,201.157c7.804-3.679,16.109-6.459,24.79-8.197 c6.906-1.382,14.043-2.119,21.349-2.119c7.305,0,14.44,0.737,21.343,2.118c8.682,1.736,16.988,4.518,24.792,8.197l34.92-34.607 l0.048-0.048C341.513,266.077,343.994,260.127,343.994,253.918z"/> <path style="fill:#FFB655;" d="M302.134,305.102c-7.804-3.679-16.111-6.461-24.792-8.197c-6.903-1.381-14.038-2.118-21.343-2.118 c-7.306,0-14.443,0.737-21.349,2.119c-8.681,1.738-16.984,4.52-24.79,8.197c-36.876,17.38-62.467,54.894-62.467,98.29 C147.394,463.279,196.113,512,256,512s108.606-48.721,108.606-108.606C364.606,359.997,339.012,322.481,302.134,305.102z"/> <path style="fill:#EE8700;" d="M234.651,296.907c-8.681,1.738-16.984,4.52-24.79,8.197c-36.876,17.38-62.467,54.894-62.467,98.29 C147.394,463.279,196.113,512,256,512V294.788C248.694,294.788,241.557,295.525,234.651,296.907z"/> </g>
</svg>